<svg width="508" height="211" viewBox="0 0 508 211" fill="none" xmlns="http://www.w3.org/2000/svg">
<path d="M420.862 210.452H216.167C215.081 210.451 214.04 209.923 213.273 208.986C212.505 208.049 212.073 206.778 212.072 205.452V158.352H213.71V205.452C213.711 206.248 213.97 207.01 214.43 207.573C214.891 208.135 215.516 208.451 216.167 208.452H420.862C421.513 208.451 422.138 208.135 422.598 207.573C423.059 207.01 423.318 206.248 423.319 205.452V158.023H424.957V205.452C424.956 206.778 424.524 208.049 423.756 208.986C422.989 209.923 421.947 210.451 420.862 210.452Z" fill="#3F3D56"/>
<path d="M14.0906 175.398C21.8727 175.398 28.1813 167.697 28.1813 158.196C28.1813 148.696 21.8727 140.994 14.0906 140.994C6.30859 140.994 0 148.696 0 158.196C0 167.697 6.30859 175.398 14.0906 175.398Z" fill="#6C63FF"/>
<path d="M157.278 175.398C165.06 175.398 171.369 167.697 171.369 158.196C171.369 148.696 165.06 140.994 157.278 140.994C149.496 140.994 143.188 148.696 143.188 158.196C143.188 167.697 149.496 175.398 157.278 175.398Z" fill="#6C63FF"/>
<path d="M292.53 175.398C300.312 175.398 306.62 167.697 306.62 158.196C306.62 148.696 300.312 140.994 292.53 140.994C284.748 140.994 278.439 148.696 278.439 158.196C278.439 167.697 284.748 175.398 292.53 175.398Z" fill="#6C63FF"/>
<path d="M493.133 175.398C500.915 175.398 507.224 167.697 507.224 158.196C507.224 148.696 500.915 140.994 493.133 140.994C485.351 140.994 479.043 148.696 479.043 158.196C479.043 167.697 485.351 175.398 493.133 175.398Z" fill="#6C63FF"/>
<path d="M424.138 175.398C431.92 175.398 438.229 167.697 438.229 158.196C438.229 148.696 431.92 140.994 424.138 140.994C416.356 140.994 410.047 148.696 410.047 158.196C410.047 167.697 416.356 175.398 424.138 175.398Z" fill="#6C63FF"/>
<path d="M197.135 0H171V21.9898H197.135V0Z" fill="#3F3D56"/>
<path d="M27.2616 0H1.12607V21.9898H27.2616V0Z" fill="#6C63FF"/>
<path d="M115.787 0H89.6515V21.9898H115.787V0Z" fill="#CCCCCC"/>
<path d="M57.7852 159.352C57.5679 159.352 57.3596 159.247 57.206 159.059C57.0523 158.872 56.966 158.617 56.966 158.352V108.99C56.9673 107.664 57.3992 106.393 58.167 105.456C58.9348 104.519 59.9758 103.991 61.0617 103.99H100.933C101.15 103.99 101.358 104.095 101.512 104.283C101.665 104.47 101.752 104.725 101.752 104.99C101.752 105.255 101.665 105.509 101.512 105.697C101.358 105.884 101.15 105.99 100.933 105.99H61.0617C60.4102 105.991 59.7855 106.307 59.3248 106.869C58.8641 107.432 58.605 108.194 58.6043 108.99V158.352C58.6043 158.617 58.518 158.872 58.3644 159.059C58.2107 159.247 58.0024 159.352 57.7852 159.352Z" fill="#3F3D56"/>
<path d="M102.806 121.818C110.588 121.818 116.897 114.116 116.897 104.616C116.897 95.1157 110.588 87.4141 102.806 87.4141C95.0243 87.4141 88.7157 95.1157 88.7157 104.616C88.7157 114.116 95.0243 121.818 102.806 121.818Z" fill="#E6E6E6"/>
<path d="M373.15 158.352H371.511V108.99C371.513 107.664 371.945 106.393 372.712 105.456C373.48 104.519 374.521 103.991 375.607 103.99H415.478V105.99H375.607C374.955 105.991 374.331 106.307 373.87 106.869C373.409 107.432 373.15 108.194 373.15 108.99V158.352Z" fill="#3F3D56"/>
<path d="M417.352 121.818C425.134 121.818 431.442 114.116 431.442 104.616C431.442 95.1157 425.134 87.4141 417.352 87.4141C409.57 87.4141 403.261 95.1157 403.261 104.616C403.261 114.116 409.57 121.818 417.352 121.818Z" fill="#E6E6E6"/>
</svg>
