<svg width="272" height="176" viewBox="0 0 272 176" fill="none" xmlns="http://www.w3.org/2000/svg">
<path d="M13.5414 175.398C21.0201 175.398 27.0827 167.697 27.0827 158.196C27.0827 148.696 21.0201 140.994 13.5414 140.994C6.06267 140.994 0 148.696 0 158.196C0 167.697 6.06267 175.398 13.5414 175.398Z" fill="#6C63FF"/>
<path d="M151.147 175.398C158.626 175.398 164.689 167.697 164.689 158.196C164.689 148.696 158.626 140.994 151.147 140.994C143.669 140.994 137.606 148.696 137.606 158.196C137.606 167.697 143.669 175.398 151.147 175.398Z" fill="#6C63FF"/>
<path d="M257.64 175.404C265.119 175.404 271.181 167.702 271.181 158.202C271.181 148.702 265.119 141 257.64 141C250.161 141 244.099 148.702 244.099 158.202C244.099 167.702 250.161 175.404 257.64 175.404Z" fill="#6C63FF"/>
<path d="M257.64 109.404C265.119 109.404 271.181 101.702 271.181 92.202C271.181 82.7016 265.119 75 257.64 75C250.161 75 244.099 82.7016 244.099 92.202C244.099 101.702 250.161 109.404 257.64 109.404Z" fill="#6C63FF"/>
<path d="M189.451 0H164.334V21.9898H189.451V0Z" fill="#3F3D56"/>
<path d="M26.1989 0H1.08218V21.9898H26.1989V0Z" fill="#6C63FF"/>
<path d="M111.273 0H86.1567V21.9898H111.273V0Z" fill="#CCCCCC"/>
<path d="M55.5326 159.352C55.3238 159.352 55.1236 159.247 54.976 159.059C54.8283 158.872 54.7454 158.617 54.7454 158.352V108.99C54.7466 107.664 55.1617 106.393 55.8996 105.456C56.6375 104.519 57.6379 103.991 58.6814 103.99H96.998C97.2068 103.99 97.4071 104.095 97.5547 104.283C97.7023 104.47 97.7852 104.725 97.7852 104.99C97.7852 105.255 97.7023 105.509 97.5547 105.697C97.4071 105.884 97.2068 105.99 96.998 105.99H58.6814C58.0553 105.991 57.455 106.307 57.0122 106.869C56.5695 107.432 56.3205 108.194 56.3198 108.99V158.352C56.3198 158.617 56.2368 158.872 56.0892 159.059C55.9416 159.247 55.7414 159.352 55.5326 159.352Z" fill="#3F3D56"/>
<path d="M98.7987 121.818C106.277 121.818 112.34 114.116 112.34 104.616C112.34 95.1157 106.277 87.4141 98.7987 87.4141C91.3201 87.4141 85.2574 95.1157 85.2574 104.616C85.2574 114.116 91.3201 121.818 98.7987 121.818Z" fill="#E6E6E6"/>
</svg>
