<svg width="67" height="70" viewBox="0 0 67 70" fill="none" xmlns="http://www.w3.org/2000/svg">
<path d="M33.5 70C52.0015 70 67 54.33 67 35C67 15.67 52.0015 0 33.5 0C14.9985 0 0 15.67 0 35C0 54.33 14.9985 70 33.5 70Z" fill="#6C63FF"/>
<path d="M8.93182 49.3374C7.35748 49.3374 5.93158 48.9325 4.65412 48.1229C3.38565 47.3042 2.37808 46.1032 1.63139 44.5199C0.893703 42.9276 0.524858 40.9754 0.524858 38.6634C0.524858 36.2884 0.907197 34.3137 1.67188 32.7393C2.43655 31.156 3.45313 29.973 4.72159 29.1903C5.99905 28.3987 7.39796 28.0028 8.91832 28.0028C10.0788 28.0028 11.0459 28.2008 11.8196 28.5966C12.6023 28.9834 13.232 29.4692 13.7088 30.054C14.1946 30.6297 14.5634 31.1965 14.8153 31.7543H14.9908V21.3636H20.7259V49H15.0582V45.6804H14.8153C14.5455 46.2562 14.1631 46.8274 13.6683 47.3942C13.1825 47.9519 12.5483 48.4152 11.7656 48.7841C10.992 49.1529 10.0473 49.3374 8.93182 49.3374ZM10.7536 44.7628C11.6802 44.7628 12.4628 44.5109 13.1016 44.0071C13.7493 43.4943 14.2441 42.7791 14.5859 41.8615C14.9368 40.9439 15.1122 39.8688 15.1122 38.6364C15.1122 37.4039 14.9413 36.3333 14.5994 35.4247C14.2576 34.5161 13.7628 33.8144 13.1151 33.3196C12.4673 32.8248 11.6802 32.5774 10.7536 32.5774C9.80895 32.5774 9.01278 32.8338 8.36506 33.3466C7.71733 33.8594 7.22704 34.5701 6.89418 35.4787C6.56132 36.3873 6.39489 37.4399 6.39489 38.6364C6.39489 39.8419 6.56132 40.9079 6.89418 41.8345C7.23603 42.7521 7.72633 43.4718 8.36506 43.9936C9.01278 44.5064 9.80895 44.7628 10.7536 44.7628ZM34.8983 49.4048C32.7662 49.4048 30.9309 48.973 29.3926 48.1094C27.8632 47.2367 26.6847 46.0043 25.8571 44.4119C25.0294 42.8106 24.6156 40.9169 24.6156 38.7308C24.6156 36.5987 25.0294 34.7275 25.8571 33.1172C26.6847 31.5069 27.8497 30.2519 29.3521 29.3523C30.8635 28.4527 32.6357 28.0028 34.6689 28.0028C36.0363 28.0028 37.3092 28.2232 38.4877 28.6641C39.6752 29.0959 40.7098 29.7481 41.5914 30.6207C42.4821 31.4934 43.1748 32.5909 43.6696 33.9134C44.1644 35.2268 44.4118 36.7652 44.4118 38.5284V40.1072H26.9096V36.5447H39.0005C39.0005 35.7171 38.8206 34.9839 38.4608 34.3452C38.1009 33.7064 37.6016 33.2071 36.9629 32.8473C36.3332 32.4785 35.6 32.294 34.7633 32.294C33.8907 32.294 33.117 32.4964 32.4423 32.9013C31.7766 33.2971 31.2548 33.8324 30.877 34.5071C30.4991 35.1728 30.3057 35.915 30.2967 36.7337V40.1207C30.2967 41.1463 30.4856 42.0324 30.8635 42.7791C31.2503 43.5258 31.7946 44.1016 32.4963 44.5064C33.198 44.9112 34.0301 45.1136 34.9927 45.1136C35.6315 45.1136 36.2162 45.0237 36.747 44.8438C37.2778 44.6638 37.7321 44.3939 38.1099 44.0341C38.4877 43.6742 38.7756 43.2334 38.9735 42.7116L44.2903 43.0625C44.0204 44.34 43.4672 45.4555 42.6305 46.4091C41.8029 47.3537 40.7323 48.0914 39.4189 48.6222C38.1144 49.1439 36.6075 49.4048 34.8983 49.4048ZM66.9304 28.2727L59.6839 49H53.2067L45.9602 28.2727H52.0327L56.3374 43.103H56.5533L60.8445 28.2727H66.9304Z" fill="white"/>
</svg>
