<svg width="666" height="498" viewBox="0 0 666 498" fill="none" xmlns="http://www.w3.org/2000/svg">
<g clip-path="url(#clip0_10_18)">
<path d="M387.944 87.7916C400.426 87.7916 410.545 77.3885 410.545 64.5556C410.545 51.7227 400.426 41.3196 387.944 41.3196C375.462 41.3196 365.343 51.7227 365.343 64.5556C365.343 77.3885 375.462 87.7916 387.944 87.7916Z" fill="#F2F2F2"/>
<path d="M563.265 432.64C596.858 406.334 612.903 362.129 602.858 319.96C602.609 318.912 602.345 317.867 602.068 316.824C595.409 291.793 578.933 268.003 554.921 260.005C534.759 253.289 512.752 258.453 491.718 255.783C450.427 250.54 418.415 216.192 395.891 180.229C373.366 144.266 356.055 104.011 326.125 74.3005C276.79 25.3276 196.313 14.7837 135.145 46.6614C73.9765 78.5392 35.0131 149.263 36.6747 219.747C38.3365 290.232 79.0362 357.621 138.142 393.375C159.855 406.509 184.969 415.814 209.962 412.558C231.648 409.733 251.352 397.753 272.936 394.196C306.871 388.604 340.59 404.379 369.941 422.761C399.292 441.143 427.643 462.931 460.997 471.453C493.383 479.727 533.506 455.943 563.265 432.64Z" fill="#F2F2F2"/>
<path d="M-3.05176e-05 377.936C7.35325 386.894 15.3067 395.312 23.802 403.129L642.198 404C650.693 396.182 658.647 387.764 666 378.806L-3.05176e-05 377.936Z" fill="#3F3D56"/>
<path d="M419.354 297.265V371.848C419.355 372.799 419.723 373.71 420.376 374.382C421.03 375.054 421.916 375.432 422.841 375.433H530.343C531.268 375.432 532.154 375.054 532.808 374.382C533.461 373.71 533.829 372.799 533.83 371.848V297.265C533.828 296.316 533.459 295.406 532.806 294.735C532.152 294.064 531.267 293.686 530.343 293.685H422.841C421.917 293.686 421.032 294.064 420.378 294.735C419.725 295.406 419.357 296.316 419.354 297.265Z" fill="#3F3D56"/>
<path d="M421.876 298.193V370.928C421.877 371.436 422.074 371.923 422.423 372.282C422.772 372.641 423.246 372.843 423.74 372.844H529.448C529.942 372.843 530.416 372.641 530.765 372.282C531.114 371.923 531.311 371.436 531.312 370.928V298.193C531.312 297.685 531.115 297.197 530.766 296.837C530.417 296.478 529.943 296.275 529.448 296.274H423.74C423.245 296.275 422.771 296.478 422.422 296.837C422.073 297.197 421.876 297.685 421.876 298.193Z" fill="#4BD16F"/>
<path d="M417.106 386.394C417.303 386.648 417.553 386.853 417.838 386.993C418.123 387.133 418.435 387.205 418.751 387.203H533.861C534.176 387.203 534.486 387.13 534.77 386.991C535.054 386.851 535.305 386.649 535.503 386.397C535.701 386.146 535.843 385.852 535.917 385.538C535.991 385.223 535.996 384.896 535.931 384.579L534.144 375.853C534.07 375.497 533.911 375.166 533.68 374.889C533.45 374.613 533.156 374.4 532.825 374.271C532.586 374.174 532.331 374.125 532.074 374.125H420.531C420.274 374.125 420.019 374.174 419.779 374.271C419.448 374.4 419.154 374.613 418.924 374.889C418.694 375.166 418.534 375.497 418.46 375.853L416.673 384.579C416.61 384.895 416.616 385.223 416.691 385.537C416.765 385.851 416.907 386.143 417.106 386.394Z" fill="#2F2E41"/>
<path d="M528.124 377.883H530.843C531.071 377.883 531.256 377.693 531.256 377.459V376.121C531.256 375.887 531.071 375.697 530.843 375.697H528.124C527.896 375.697 527.711 375.887 527.711 376.121V377.459C527.711 377.693 527.896 377.883 528.124 377.883Z" fill="#3F3D56"/>
<path d="M521.034 377.883H523.752C523.981 377.883 524.166 377.693 524.166 377.459V376.121C524.166 375.887 523.981 375.697 523.752 375.697H521.034C520.805 375.697 520.62 375.887 520.62 376.121V377.459C520.62 377.693 520.805 377.883 521.034 377.883Z" fill="#3F3D56"/>
<path d="M513.943 377.883H516.662C516.89 377.883 517.075 377.693 517.075 377.459V376.121C517.075 375.887 516.89 375.697 516.662 375.697H513.943C513.715 375.697 513.53 375.887 513.53 376.121V377.459C513.53 377.693 513.715 377.883 513.943 377.883Z" fill="#3F3D56"/>
<path d="M506.852 377.883H509.571C509.799 377.883 509.984 377.693 509.984 377.459V376.121C509.984 375.887 509.799 375.697 509.571 375.697H506.852C506.624 375.697 506.439 375.887 506.439 376.121V377.459C506.439 377.693 506.624 377.883 506.852 377.883Z" fill="#3F3D56"/>
<path d="M499.762 377.883H502.48C502.709 377.883 502.894 377.693 502.894 377.459V376.121C502.894 375.887 502.709 375.697 502.48 375.697H499.762C499.533 375.697 499.348 375.887 499.348 376.121V377.459C499.348 377.693 499.533 377.883 499.762 377.883Z" fill="#3F3D56"/>
<path d="M492.671 377.883H495.39C495.618 377.883 495.803 377.693 495.803 377.459V376.121C495.803 375.887 495.618 375.697 495.39 375.697H492.671C492.443 375.697 492.258 375.887 492.258 376.121V377.459C492.258 377.693 492.443 377.883 492.671 377.883Z" fill="#3F3D56"/>
<path d="M485.58 377.883H488.299C488.527 377.883 488.712 377.693 488.712 377.459V376.121C488.712 375.887 488.527 375.697 488.299 375.697H485.58C485.352 375.697 485.167 375.887 485.167 376.121V377.459C485.167 377.693 485.352 377.883 485.58 377.883Z" fill="#3F3D56"/>
<path d="M478.49 377.883H481.209C481.437 377.883 481.622 377.693 481.622 377.459V376.121C481.622 375.887 481.437 375.697 481.209 375.697H478.49C478.261 375.697 478.076 375.887 478.076 376.121V377.459C478.076 377.693 478.261 377.883 478.49 377.883Z" fill="#3F3D56"/>
<path d="M471.399 377.883H474.118C474.346 377.883 474.531 377.693 474.531 377.459V376.121C474.531 375.887 474.346 375.697 474.118 375.697H471.399C471.171 375.697 470.986 375.887 470.986 376.121V377.459C470.986 377.693 471.171 377.883 471.399 377.883Z" fill="#3F3D56"/>
<path d="M464.308 377.883H467.027C467.255 377.883 467.44 377.693 467.44 377.459V376.121C467.44 375.887 467.255 375.697 467.027 375.697H464.308C464.08 375.697 463.895 375.887 463.895 376.121V377.459C463.895 377.693 464.08 377.883 464.308 377.883Z" fill="#3F3D56"/>
<path d="M457.218 377.883H459.937C460.165 377.883 460.35 377.693 460.35 377.459V376.121C460.35 375.887 460.165 375.697 459.937 375.697H457.218C456.989 375.697 456.804 375.887 456.804 376.121V377.459C456.804 377.693 456.989 377.883 457.218 377.883Z" fill="#3F3D56"/>
<path d="M450.127 377.883H452.846C453.074 377.883 453.259 377.693 453.259 377.459V376.121C453.259 375.887 453.074 375.697 452.846 375.697H450.127C449.899 375.697 449.714 375.887 449.714 376.121V377.459C449.714 377.693 449.899 377.883 450.127 377.883Z" fill="#3F3D56"/>
<path d="M443.036 377.883H445.755C445.983 377.883 446.168 377.693 446.168 377.459V376.121C446.168 375.887 445.983 375.697 445.755 375.697H443.036C442.808 375.697 442.623 375.887 442.623 376.121V377.459C442.623 377.693 442.808 377.883 443.036 377.883Z" fill="#3F3D56"/>
<path d="M435.946 377.883H438.665C438.893 377.883 439.078 377.693 439.078 377.459V376.121C439.078 375.887 438.893 375.697 438.665 375.697H435.946C435.717 375.697 435.532 375.887 435.532 376.121V377.459C435.532 377.693 435.717 377.883 435.946 377.883Z" fill="#3F3D56"/>
<path d="M428.855 377.883H431.574C431.802 377.883 431.987 377.693 431.987 377.459V376.121C431.987 375.887 431.802 375.697 431.574 375.697H428.855C428.627 375.697 428.442 375.887 428.442 376.121V377.459C428.442 377.693 428.627 377.883 428.855 377.883Z" fill="#3F3D56"/>
<path d="M421.764 377.883H424.483C424.712 377.883 424.896 377.693 424.896 377.459V376.121C424.896 375.887 424.712 375.697 424.483 375.697H421.764C421.536 375.697 421.351 375.887 421.351 376.121V377.459C421.351 377.693 421.536 377.883 421.764 377.883Z" fill="#3F3D56"/>
<path d="M528.208 381.528H530.927C531.155 381.528 531.34 381.338 531.34 381.104V379.766C531.34 379.532 531.155 379.341 530.927 379.341H528.208C527.98 379.341 527.795 379.532 527.795 379.766V381.104C527.795 381.338 527.98 381.528 528.208 381.528Z" fill="#3F3D56"/>
<path d="M521.117 381.528H523.836C524.064 381.528 524.249 381.338 524.249 381.104V379.766C524.249 379.532 524.064 379.341 523.836 379.341H521.117C520.889 379.341 520.704 379.532 520.704 379.766V381.104C520.704 381.338 520.889 381.528 521.117 381.528Z" fill="#3F3D56"/>
<path d="M514.027 381.528H516.746C516.974 381.528 517.159 381.338 517.159 381.104V379.766C517.159 379.532 516.974 379.341 516.746 379.341H514.027C513.798 379.341 513.613 379.532 513.613 379.766V381.104C513.613 381.338 513.798 381.528 514.027 381.528Z" fill="#3F3D56"/>
<path d="M506.936 381.528H509.655C509.883 381.528 510.068 381.338 510.068 381.104V379.766C510.068 379.532 509.883 379.341 509.655 379.341H506.936C506.708 379.341 506.523 379.532 506.523 379.766V381.104C506.523 381.338 506.708 381.528 506.936 381.528Z" fill="#3F3D56"/>
<path d="M499.845 381.528H502.564C502.792 381.528 502.977 381.338 502.977 381.104V379.766C502.977 379.532 502.792 379.341 502.564 379.341H499.845C499.617 379.341 499.432 379.532 499.432 379.766V381.104C499.432 381.338 499.617 381.528 499.845 381.528Z" fill="#3F3D56"/>
<path d="M492.755 381.528H495.474C495.702 381.528 495.887 381.338 495.887 381.104V379.766C495.887 379.532 495.702 379.341 495.474 379.341H492.755C492.527 379.341 492.342 379.532 492.342 379.766V381.104C492.342 381.338 492.527 381.528 492.755 381.528Z" fill="#3F3D56"/>
<path d="M485.664 381.528H488.383C488.611 381.528 488.796 381.338 488.796 381.104V379.766C488.796 379.532 488.611 379.341 488.383 379.341H485.664C485.436 379.341 485.251 379.532 485.251 379.766V381.104C485.251 381.338 485.436 381.528 485.664 381.528Z" fill="#3F3D56"/>
<path d="M478.573 381.528H481.292C481.52 381.528 481.706 381.338 481.706 381.104V379.766C481.706 379.532 481.52 379.341 481.292 379.341H478.573C478.345 379.341 478.16 379.532 478.16 379.766V381.104C478.16 381.338 478.345 381.528 478.573 381.528Z" fill="#3F3D56"/>
<path d="M471.483 381.528H474.202C474.43 381.528 474.615 381.338 474.615 381.104V379.766C474.615 379.532 474.43 379.341 474.202 379.341H471.483C471.255 379.341 471.07 379.532 471.07 379.766V381.104C471.07 381.338 471.255 381.528 471.483 381.528Z" fill="#3F3D56"/>
<path d="M464.392 381.528H467.111C467.339 381.528 467.524 381.338 467.524 381.104V379.766C467.524 379.532 467.339 379.341 467.111 379.341H464.392C464.164 379.341 463.979 379.532 463.979 379.766V381.104C463.979 381.338 464.164 381.528 464.392 381.528Z" fill="#3F3D56"/>
<path d="M457.301 381.528H460.02C460.248 381.528 460.433 381.338 460.433 381.104V379.766C460.433 379.532 460.248 379.341 460.02 379.341H457.301C457.073 379.341 456.888 379.532 456.888 379.766V381.104C456.888 381.338 457.073 381.528 457.301 381.528Z" fill="#3F3D56"/>
<path d="M450.211 381.528H452.93C453.158 381.528 453.343 381.338 453.343 381.104V379.766C453.343 379.532 453.158 379.341 452.93 379.341H450.211C449.983 379.341 449.798 379.532 449.798 379.766V381.104C449.798 381.338 449.983 381.528 450.211 381.528Z" fill="#3F3D56"/>
<path d="M443.12 381.528H445.839C446.067 381.528 446.252 381.338 446.252 381.104V379.766C446.252 379.532 446.067 379.341 445.839 379.341H443.12C442.892 379.341 442.707 379.532 442.707 379.766V381.104C442.707 381.338 442.892 381.528 443.12 381.528Z" fill="#3F3D56"/>
<path d="M436.03 381.528H438.748C438.977 381.528 439.162 381.338 439.162 381.104V379.766C439.162 379.532 438.977 379.341 438.748 379.341H436.03C435.801 379.341 435.616 379.532 435.616 379.766V381.104C435.616 381.338 435.801 381.528 436.03 381.528Z" fill="#3F3D56"/>
<path d="M428.939 381.528H431.658C431.886 381.528 432.071 381.338 432.071 381.104V379.766C432.071 379.532 431.886 379.341 431.658 379.341H428.939C428.711 379.341 428.526 379.532 428.526 379.766V381.104C428.526 381.338 428.711 381.528 428.939 381.528Z" fill="#3F3D56"/>
<path d="M421.848 381.528H424.567C424.795 381.528 424.98 381.338 424.98 381.104V379.766C424.98 379.532 424.795 379.341 424.567 379.341H421.848C421.62 379.341 421.435 379.532 421.435 379.766V381.104C421.435 381.338 421.62 381.528 421.848 381.528Z" fill="#3F3D56"/>
<path d="M469.356 385.902H496.892C497.12 385.902 497.305 385.712 497.305 385.477V384.14C497.305 383.906 497.12 383.715 496.892 383.715H469.356C469.127 383.715 468.942 383.906 468.942 384.14V385.477C468.942 385.712 469.127 385.902 469.356 385.902Z" fill="#3F3D56"/>
<path d="M440.182 312.186H437.775C437.045 312.186 436.453 312.795 436.453 313.545C436.453 314.295 437.045 314.903 437.775 314.903H440.182C440.912 314.903 441.503 314.295 441.503 313.545C441.503 312.795 440.912 312.186 440.182 312.186Z" fill="white"/>
<path d="M467.711 312.186H465.304C464.574 312.186 463.982 312.795 463.982 313.545C463.982 314.295 464.574 314.903 465.304 314.903H467.711C468.441 314.903 469.032 314.295 469.032 313.545C469.032 312.795 468.441 312.186 467.711 312.186Z" fill="white"/>
<path d="M475.511 312.186H473.104C472.374 312.186 471.782 312.795 471.782 313.545C471.782 314.295 472.374 314.903 473.104 314.903H475.511C476.24 314.903 476.832 314.295 476.832 313.545C476.832 312.795 476.24 312.186 475.511 312.186Z" fill="white"/>
<path d="M460.223 311.96H445.263C444.533 311.96 443.941 312.568 443.941 313.318C443.941 314.069 444.533 314.677 445.263 314.677H460.223C460.953 314.677 461.544 314.069 461.544 313.318C461.544 312.568 460.953 311.96 460.223 311.96Z" fill="white"/>
<path d="M496.928 311.96H481.968C481.238 311.96 480.647 312.568 480.647 313.318C480.647 314.069 481.238 314.677 481.968 314.677H496.928C497.658 314.677 498.249 314.069 498.249 313.318C498.249 312.568 497.658 311.96 496.928 311.96Z" fill="white"/>
<path d="M447.523 318.319H445.116C444.386 318.319 443.794 318.927 443.794 319.677C443.794 320.427 444.386 321.036 445.116 321.036H447.523C448.253 321.036 448.844 320.427 448.844 319.677C448.844 318.927 448.253 318.319 447.523 318.319Z" fill="white"/>
<path d="M475.052 318.319H472.645C471.915 318.319 471.323 318.927 471.323 319.677C471.323 320.427 471.915 321.036 472.645 321.036H475.052C475.782 321.036 476.373 320.427 476.373 319.677C476.373 318.927 475.782 318.319 475.052 318.319Z" fill="white"/>
<path d="M482.852 318.319H480.445C479.715 318.319 479.123 318.927 479.123 319.677C479.123 320.427 479.715 321.036 480.445 321.036H482.852C483.581 321.036 484.173 320.427 484.173 319.677C484.173 318.927 483.581 318.319 482.852 318.319Z" fill="white"/>
<path d="M467.564 318.092H452.604C451.874 318.092 451.282 318.7 451.282 319.451C451.282 320.201 451.874 320.809 452.604 320.809H467.564C468.294 320.809 468.885 320.201 468.885 319.451C468.885 318.7 468.294 318.092 467.564 318.092Z" fill="white"/>
<path d="M504.269 318.092H489.309C488.579 318.092 487.988 318.7 487.988 319.451C487.988 320.201 488.579 320.809 489.309 320.809H504.269C504.999 320.809 505.591 320.201 505.591 319.451C505.591 318.7 504.999 318.092 504.269 318.092Z" fill="white"/>
<path d="M454.864 324.451H452.457C451.727 324.451 451.136 325.059 451.136 325.809C451.136 326.56 451.727 327.168 452.457 327.168H454.864C455.594 327.168 456.185 326.56 456.185 325.809C456.185 325.059 455.594 324.451 454.864 324.451Z" fill="white"/>
<path d="M482.393 324.451H479.986C479.256 324.451 478.665 325.059 478.665 325.809C478.665 326.56 479.256 327.168 479.986 327.168H482.393C483.123 327.168 483.714 326.56 483.714 325.809C483.714 325.059 483.123 324.451 482.393 324.451Z" fill="white"/>
<path d="M490.193 324.451H487.786C487.056 324.451 486.464 325.059 486.464 325.809C486.464 326.56 487.056 327.168 487.786 327.168H490.193C490.923 327.168 491.514 326.56 491.514 325.809C491.514 325.059 490.923 324.451 490.193 324.451Z" fill="white"/>
<path d="M474.905 324.224H459.945C459.215 324.224 458.624 324.833 458.624 325.583C458.624 326.333 459.215 326.941 459.945 326.941H474.905C475.635 326.941 476.226 326.333 476.226 325.583C476.226 324.833 475.635 324.224 474.905 324.224Z" fill="white"/>
<path d="M511.61 324.224H496.65C495.92 324.224 495.329 324.833 495.329 325.583C495.329 326.333 495.92 326.941 496.65 326.941H511.61C512.34 326.941 512.931 326.333 512.931 325.583C512.931 324.833 512.34 324.224 511.61 324.224Z" fill="white"/>
<path d="M462.205 330.583H459.798C459.068 330.583 458.477 331.191 458.477 331.942C458.477 332.692 459.068 333.3 459.798 333.3H462.205C462.935 333.3 463.526 332.692 463.526 331.942C463.526 331.191 462.935 330.583 462.205 330.583Z" fill="white"/>
<path d="M489.734 330.583H487.327C486.597 330.583 486.006 331.191 486.006 331.942C486.006 332.692 486.597 333.3 487.327 333.3H489.734C490.464 333.3 491.055 332.692 491.055 331.942C491.055 331.191 490.464 330.583 489.734 330.583Z" fill="white"/>
<path d="M497.534 330.583H495.127C494.397 330.583 493.805 331.191 493.805 331.942C493.805 332.692 494.397 333.3 495.127 333.3H497.534C498.264 333.3 498.855 332.692 498.855 331.942C498.855 331.191 498.264 330.583 497.534 330.583Z" fill="white"/>
<path d="M482.246 330.357H467.286C466.556 330.357 465.965 330.965 465.965 331.715C465.965 332.465 466.556 333.074 467.286 333.074H482.246C482.976 333.074 483.567 332.465 483.567 331.715C483.567 330.965 482.976 330.357 482.246 330.357Z" fill="white"/>
<path d="M467.711 354.968H465.304C464.574 354.968 463.982 355.576 463.982 356.326C463.982 357.076 464.574 357.685 465.304 357.685H467.711C468.441 357.685 469.032 357.076 469.032 356.326C469.032 355.576 468.441 354.968 467.711 354.968Z" fill="white"/>
<path d="M475.511 354.968H473.104C472.374 354.968 471.782 355.576 471.782 356.326C471.782 357.076 472.374 357.685 473.104 357.685H475.511C476.24 357.685 476.832 357.076 476.832 356.326C476.832 355.576 476.24 354.968 475.511 354.968Z" fill="white"/>
<path d="M496.928 355.194H481.968C481.238 355.194 480.647 355.802 480.647 356.553C480.647 357.303 481.238 357.911 481.968 357.911H496.928C497.658 357.911 498.249 357.303 498.249 356.553C498.249 355.802 497.658 355.194 496.928 355.194Z" fill="white"/>
<path d="M440.182 354.968H437.775C437.045 354.968 436.453 355.576 436.453 356.326C436.453 357.076 437.045 357.685 437.775 357.685H440.182C440.912 357.685 441.503 357.076 441.503 356.326C441.503 355.576 440.912 354.968 440.182 354.968Z" fill="white"/>
<path d="M460.223 355.194H445.263C444.533 355.194 443.941 355.802 443.941 356.553C443.941 357.303 444.533 357.911 445.263 357.911H460.223C460.953 357.911 461.544 357.303 461.544 356.553C461.544 355.802 460.953 355.194 460.223 355.194Z" fill="white"/>
<path d="M447.523 348.835H445.116C444.386 348.835 443.794 349.444 443.794 350.194C443.794 350.944 444.386 351.552 445.116 351.552H447.523C448.253 351.552 448.844 350.944 448.844 350.194C448.844 349.444 448.253 348.835 447.523 348.835Z" fill="white"/>
<path d="M475.052 348.835H472.645C471.915 348.835 471.323 349.444 471.323 350.194C471.323 350.944 471.915 351.552 472.645 351.552H475.052C475.782 351.552 476.373 350.944 476.373 350.194C476.373 349.444 475.782 348.835 475.052 348.835Z" fill="white"/>
<path d="M482.852 348.835H480.445C479.715 348.835 479.123 349.444 479.123 350.194C479.123 350.944 479.715 351.552 480.445 351.552H482.852C483.581 351.552 484.173 350.944 484.173 350.194C484.173 349.444 483.581 348.835 482.852 348.835Z" fill="white"/>
<path d="M467.564 349.062H452.604C451.874 349.062 451.282 349.67 451.282 350.42C451.282 351.171 451.874 351.779 452.604 351.779H467.564C468.294 351.779 468.885 351.171 468.885 350.42C468.885 349.67 468.294 349.062 467.564 349.062Z" fill="white"/>
<path d="M454.864 342.703H452.457C451.727 342.703 451.136 343.311 451.136 344.062C451.136 344.812 451.727 345.42 452.457 345.42H454.864C455.594 345.42 456.185 344.812 456.185 344.062C456.185 343.311 455.594 342.703 454.864 342.703Z" fill="white"/>
<path d="M482.393 342.703H479.986C479.256 342.703 478.665 343.311 478.665 344.062C478.665 344.812 479.256 345.42 479.986 345.42H482.393C483.123 345.42 483.714 344.812 483.714 344.062C483.714 343.311 483.123 342.703 482.393 342.703Z" fill="white"/>
<path d="M490.193 342.703H487.786C487.056 342.703 486.464 343.311 486.464 344.062C486.464 344.812 487.056 345.42 487.786 345.42H490.193C490.923 345.42 491.514 344.812 491.514 344.062C491.514 343.311 490.923 342.703 490.193 342.703Z" fill="white"/>
<path d="M474.905 342.93H459.945C459.215 342.93 458.624 343.538 458.624 344.288C458.624 345.038 459.215 345.647 459.945 345.647H474.905C475.635 345.647 476.226 345.038 476.226 344.288C476.226 343.538 475.635 342.93 474.905 342.93Z" fill="white"/>
<path d="M462.205 336.571H459.798C459.068 336.571 458.477 337.179 458.477 337.929C458.477 338.68 459.068 339.288 459.798 339.288H462.205C462.935 339.288 463.526 338.68 463.526 337.929C463.526 337.179 462.935 336.571 462.205 336.571Z" fill="white"/>
<path d="M489.734 336.571H487.327C486.597 336.571 486.006 337.179 486.006 337.929C486.006 338.68 486.597 339.288 487.327 339.288H489.734C490.464 339.288 491.055 338.68 491.055 337.929C491.055 337.179 490.464 336.571 489.734 336.571Z" fill="white"/>
<path d="M497.534 336.571H495.127C494.397 336.571 493.805 337.179 493.805 337.929C493.805 338.68 494.397 339.288 495.127 339.288H497.534C498.264 339.288 498.855 338.68 498.855 337.929C498.855 337.179 498.264 336.571 497.534 336.571Z" fill="white"/>
<path d="M482.246 336.797H467.286C466.556 336.797 465.965 337.406 465.965 338.156C465.965 338.906 466.556 339.514 467.286 339.514H482.246C482.976 339.514 483.567 338.906 483.567 338.156C483.567 337.406 482.976 336.797 482.246 336.797Z" fill="white"/>
<path d="M427.385 426.835L416.085 408.472L451.553 379.404L466.192 362.729C468.094 360.563 470.516 358.947 473.215 358.045C475.915 357.142 478.797 356.983 481.575 357.585C484.352 358.186 486.928 359.527 489.044 361.472C491.16 363.418 492.742 365.9 493.632 368.671C494.952 372.777 494.668 377.25 492.841 381.145C491.014 385.041 487.786 388.054 483.839 389.549L460.69 398.317L427.385 426.835Z" fill="#FFB6B6"/>
<path d="M162.255 293.688V382.94H223.072V293.688C223.073 293.047 222.874 292.421 222.504 291.904C222.134 291.387 221.612 291.006 221.015 290.817C220.734 290.721 220.44 290.674 220.143 290.677H165.192C164.807 290.677 164.425 290.754 164.069 290.905C163.713 291.056 163.389 291.277 163.117 291.557C162.844 291.837 162.627 292.169 162.48 292.535C162.332 292.9 162.255 293.292 162.255 293.688ZM185.989 324.356C186.005 322.596 186.696 320.914 187.912 319.676C189.128 318.437 190.77 317.742 192.482 317.742C194.193 317.742 195.835 318.437 197.051 319.676C198.267 320.914 198.958 322.596 198.974 324.356V334.711C198.965 336.476 198.277 338.165 197.061 339.409C195.844 340.654 194.198 341.352 192.482 341.352C190.765 341.352 189.119 340.654 187.903 339.409C186.686 338.165 185.998 336.476 185.989 334.711V324.356Z" fill="#2F2E41"/>
<path d="M162.069 380.086V388.692C162.07 389.138 162.243 389.565 162.548 389.881C162.854 390.197 163.269 390.377 163.703 390.38H221.625C222.059 390.378 222.474 390.199 222.781 389.883C223.087 389.567 223.259 389.138 223.258 388.692V380.086H162.069Z" fill="#3F3D56"/>
<path d="M66.5814 159.219V322.18C66.583 324.257 67.3861 326.248 68.8144 327.716C70.2427 329.185 72.1794 330.01 74.1994 330.012H309.088C311.108 330.01 313.045 329.185 314.473 327.716C315.901 326.248 316.704 324.257 316.706 322.18V159.219C316.701 157.145 315.897 155.156 314.469 153.69C313.041 152.223 311.106 151.399 309.088 151.396H74.1994C72.1812 151.399 70.2463 152.223 68.8184 153.69C67.3906 155.156 66.5862 157.145 66.5814 159.219Z" fill="#3F3D56"/>
<path d="M72.0917 161.247V320.17C72.0936 321.279 72.5231 322.343 73.2863 323.127C74.0494 323.912 75.0839 324.354 76.1631 324.355H307.133C308.212 324.354 309.246 323.912 310.009 323.127C310.773 322.343 311.202 321.279 311.204 320.17V161.247C311.204 160.136 310.775 159.07 310.012 158.284C309.249 157.498 308.213 157.055 307.133 157.052H76.1631C75.0826 157.055 74.0471 157.498 73.2838 158.284C72.5206 159.07 72.0918 160.136 72.0917 161.247Z" fill="white"/>
<path d="M114.956 389.797C115.191 390.1 115.49 390.345 115.83 390.512C116.17 390.679 116.542 390.765 116.919 390.763H254.331C254.707 390.763 255.078 390.676 255.417 390.51C255.756 390.343 256.055 390.101 256.292 389.801C256.529 389.501 256.697 389.151 256.786 388.775C256.874 388.4 256.88 388.009 256.803 387.631L254.67 377.214C254.582 376.789 254.391 376.394 254.116 376.064C253.841 375.734 253.49 375.48 253.096 375.325C252.81 375.21 252.505 375.151 252.198 375.151H119.044C118.737 375.151 118.433 375.21 118.147 375.325C117.752 375.48 117.401 375.734 117.126 376.064C116.851 376.394 116.661 376.789 116.572 377.214L114.439 387.631C114.363 388.008 114.37 388.399 114.46 388.774C114.549 389.149 114.718 389.498 114.956 389.797Z" fill="#2F2E41"/>
<path d="M299.637 178.945H83.5197C83.2951 178.94 83.0813 178.844 82.9242 178.679C82.7671 178.514 82.6791 178.292 82.6791 178.061C82.6791 177.83 82.7671 177.608 82.9242 177.443C83.0813 177.278 83.2951 177.183 83.5197 177.177H299.637C299.862 177.183 300.075 177.278 300.232 177.443C300.39 177.608 300.478 177.83 300.478 178.061C300.478 178.292 300.39 178.514 300.232 178.679C300.075 178.844 299.862 178.94 299.637 178.945Z" fill="#3F3D56"/>
<path d="M98.2311 172.666C101.013 172.666 103.268 170.296 103.268 167.372C103.268 164.449 101.013 162.079 98.2311 162.079C95.4494 162.079 93.1944 164.449 93.1944 167.372C93.1944 170.296 95.4494 172.666 98.2311 172.666Z" fill="#3F3D56"/>
<path d="M115.631 172.666C118.412 172.666 120.667 170.296 120.667 167.372C120.667 164.449 118.412 162.079 115.631 162.079C112.849 162.079 110.594 164.449 110.594 167.372C110.594 170.296 112.849 172.666 115.631 172.666Z" fill="#3F3D56"/>
<path d="M133.03 172.666C135.812 172.666 138.067 170.296 138.067 167.372C138.067 164.449 135.812 162.079 133.03 162.079C130.248 162.079 127.993 164.449 127.993 167.372C127.993 170.296 130.248 172.666 133.03 172.666Z" fill="#3F3D56"/>
<path d="M289.159 163.388H276.801C276.557 163.394 276.325 163.498 276.154 163.677C275.983 163.857 275.888 164.098 275.888 164.349C275.888 164.601 275.983 164.842 276.154 165.022C276.325 165.201 276.557 165.305 276.801 165.311H289.159C289.405 165.307 289.64 165.205 289.812 165.025C289.985 164.845 290.082 164.602 290.082 164.349C290.082 164.097 289.985 163.854 289.812 163.674C289.64 163.494 289.405 163.391 289.159 163.388Z" fill="#3F3D56"/>
<path d="M289.16 166.999H276.801C276.557 167.005 276.324 167.109 276.153 167.288C275.982 167.468 275.887 167.709 275.887 167.961C275.887 168.212 275.982 168.454 276.153 168.633C276.324 168.813 276.557 168.917 276.801 168.922H289.16C289.406 168.919 289.641 168.817 289.814 168.637C289.987 168.457 290.084 168.214 290.084 167.961C290.084 167.708 289.987 167.465 289.814 167.285C289.641 167.105 289.406 167.002 289.16 166.999Z" fill="#3F3D56"/>
<path d="M289.159 170.611H276.801C276.557 170.617 276.325 170.72 276.154 170.9C275.983 171.08 275.888 171.321 275.888 171.572C275.888 171.824 275.983 172.065 276.154 172.244C276.325 172.424 276.557 172.528 276.801 172.534H289.159C289.405 172.53 289.64 172.427 289.812 172.248C289.985 172.068 290.082 171.825 290.082 171.572C290.082 171.32 289.985 171.077 289.812 170.897C289.64 170.717 289.405 170.614 289.159 170.611Z" fill="#3F3D56"/>
<path d="M587.091 383.863C587.464 384.979 588.171 385.945 589.111 386.622C590.052 387.3 591.177 387.653 592.324 387.632L614.748 387.038C615.905 387.015 617.023 386.608 617.935 385.878C618.848 385.147 619.506 384.133 619.811 382.986L622.984 348.1C624.11 348.625 625.335 348.884 626.571 348.858C627.645 348.83 628.703 348.586 629.684 348.138C630.666 347.69 631.552 347.047 632.292 346.247C633.032 345.447 633.611 344.505 633.997 343.475C634.383 342.444 634.568 341.346 634.541 340.242C634.514 339.138 634.276 338.051 633.84 337.042C633.405 336.033 632.78 335.122 632.002 334.361C631.223 333.6 630.307 333.004 629.305 332.607C628.303 332.21 627.234 332.02 626.161 332.048C625.667 332.046 625.174 332.099 624.691 332.205C624.166 331.621 623.527 331.156 622.817 330.841C622.106 330.526 621.339 330.367 620.566 330.375L586.073 331.291C585.786 331.302 585.502 331.338 585.222 331.4C584.465 331.545 583.748 331.854 583.118 332.308C582.487 332.762 581.959 333.35 581.568 334.031C581.178 334.713 580.933 335.472 580.852 336.259C580.771 337.046 580.854 337.841 581.097 338.592L587.091 383.863ZM623.635 345.732L625.893 337.419C626.15 336.458 626.156 335.445 625.91 334.482C626.02 334.482 626.116 334.428 626.226 334.428C627.774 334.395 629.272 334.995 630.391 336.095C631.51 337.196 632.158 338.708 632.194 340.3C632.231 341.891 631.652 343.433 630.584 344.586C629.516 345.739 628.048 346.41 626.5 346.452C625.499 346.484 624.508 346.235 623.635 345.732Z" fill="#2F2E41"/>
<path d="M585.222 331.399C585.956 335.719 594.219 338.756 604.153 338.228C613.289 337.796 620.758 334.498 622.127 330.589C621.62 330.435 621.094 330.363 620.566 330.375L586.072 331.291C585.786 331.302 585.502 331.338 585.222 331.399Z" fill="#3F3D56"/>
<path d="M605.974 364.693C606.019 364.681 606.062 364.662 606.102 364.635L610.971 361.358C611.03 361.319 611.079 361.265 611.112 361.201C611.146 361.138 611.163 361.067 611.163 360.994C611.163 360.922 611.146 360.851 611.112 360.787C611.079 360.724 611.03 360.67 610.972 360.63L605.91 357.222C605.864 357.19 605.812 357.169 605.757 357.158C605.702 357.147 605.646 357.147 605.591 357.159C605.537 357.17 605.485 357.193 605.439 357.225C605.393 357.257 605.353 357.298 605.323 357.346C605.292 357.394 605.271 357.448 605.261 357.504C605.251 357.56 605.251 357.618 605.263 357.674C605.274 357.73 605.296 357.783 605.328 357.831C605.359 357.878 605.399 357.918 605.446 357.949L609.967 360.994L605.638 363.907C605.554 363.963 605.493 364.049 605.464 364.147C605.436 364.246 605.442 364.352 605.482 364.446C605.523 364.54 605.594 364.617 605.684 364.662C605.774 364.707 605.877 364.718 605.974 364.693H605.974Z" fill="#4BD16F"/>
<path d="M598.282 365.058C598.364 365.036 598.438 364.991 598.494 364.926C598.55 364.861 598.586 364.781 598.598 364.695C598.609 364.609 598.596 364.522 598.558 364.444C598.521 364.366 598.462 364.302 598.389 364.258L593.9 361.613L598.239 358.299C598.284 358.265 598.321 358.223 598.35 358.174C598.378 358.125 598.397 358.07 598.405 358.014C598.413 357.957 598.41 357.9 598.397 357.844C598.383 357.789 598.359 357.737 598.326 357.691C598.293 357.645 598.251 357.607 598.204 357.577C598.156 357.548 598.103 357.529 598.048 357.52C597.993 357.512 597.937 357.515 597.884 357.529C597.83 357.543 597.779 357.567 597.734 357.601L592.877 361.311C592.821 361.354 592.775 361.411 592.746 361.476C592.716 361.542 592.703 361.614 592.707 361.686C592.711 361.758 592.732 361.828 592.769 361.889C592.806 361.951 592.858 362.002 592.919 362.037L597.968 365.013C598.063 365.07 598.176 365.085 598.282 365.058Z" fill="#4BD16F"/>
<path d="M605.489 367.565C605.53 367.554 605.57 367.537 605.605 367.514C605.653 367.485 605.694 367.446 605.727 367.4C605.76 367.353 605.784 367.301 605.797 367.246C605.81 367.19 605.812 367.132 605.804 367.076C605.795 367.019 605.776 366.965 605.747 366.916L598.844 355.248C598.785 355.15 598.691 355.079 598.582 355.052C598.473 355.025 598.358 355.043 598.262 355.103C598.167 355.163 598.098 355.26 598.071 355.372C598.045 355.484 598.063 355.602 598.121 355.701L605.024 367.369C605.071 367.449 605.142 367.511 605.225 367.546C605.309 367.581 605.402 367.588 605.489 367.565Z" fill="#4BD16F"/>
<path d="M246.071 327.945L246.255 328.541L246.264 328.561L251.787 345.825L258.141 365.719L270.095 403.105L270.211 408.913V408.933L271.099 455.651L268.637 461.985L271.408 472.369C271.408 472.369 270.134 456.672 263.297 465.686C259.425 470.809 254.897 476.051 251.179 480.965C256.596 483.218 262.1 485.257 267.691 487.08C268.898 487.477 270.115 487.854 271.331 488.231C271.592 488.311 271.853 488.39 272.113 488.47C290.646 494.104 309.805 497.271 329.122 497.891C330.126 497.921 331.111 497.94 332.067 497.96C332.405 497.97 332.733 497.98 333.062 497.98C334.143 497.99 335.215 498 336.296 498C338.479 498 340.651 497.967 342.814 497.901C358.823 497.437 374.739 495.224 390.293 491.299C390.186 484.697 389.897 476.984 389.482 468.744C389.288 464.704 384.953 460.326 384.692 456.097C384.509 452.92 388.4 449.932 388.197 446.705C386.884 426.841 385.243 434.466 384.026 420.399C383.9 419.019 383.785 417.699 383.678 416.438C382.896 407.404 382.355 401.755 382.355 401.755L387.55 368.092L395.71 315.238L395.082 314.176L394.377 313.819L351.34 291.919L349.004 285.764C348.323 283.991 347.142 282.467 345.612 281.39C344.082 280.313 342.274 279.73 340.42 279.718L312.07 279.599C310.598 279.592 309.147 279.946 307.835 280.632C306.524 281.317 305.39 282.314 304.528 283.54L296.852 294.47L246.071 327.945Z" fill="#3F3D56"/>
<path d="M276.632 394.786L270.211 408.913L265.827 418.562L258.286 459.156L254.51 463.275L251.276 448.691L217.42 456.419C216.309 450.076 217.123 456.634 216.437 449.675C216.63 449.476 216.833 449.278 217.036 449.079C217.576 448.563 218.03 448.077 218.021 447.61C217.634 423.606 218.793 382.754 228.468 358.005C229.984 353.965 231.982 350.133 234.416 346.599C234.609 346.331 234.793 346.063 234.976 345.795C239.437 339.372 242.257 333.048 246.255 328.551V328.541C246.279 328.52 246.302 328.497 246.322 328.471C246.337 328.464 246.35 328.454 246.361 328.442L273.822 313.471L275 347.502L275.841 371.963L276.632 394.786Z" fill="#3F3D56"/>
<path d="M375.654 398.799L383.674 416.443L386.474 422.587L394.013 463.177L397.776 467.286L401.018 452.705L402.542 452.384L430.016 446.534L438.024 472.681C439.829 469.59 440.54 465.952 440.037 462.383C439.534 458.815 437.848 455.534 435.264 453.096C434.717 452.588 434.261 452.092 434.274 451.624C434.73 423.391 433.05 371.837 417.881 350.619C413.063 343.885 410.172 337.178 405.966 332.493C405.953 332.48 405.953 332.466 405.94 332.466L395.706 315.237L395.081 314.18L394.378 313.818L375.654 398.799Z" fill="#3F3D56"/>
<path d="M327.063 271.304C347.894 271.304 364.78 253.943 364.78 232.528C364.78 211.112 347.894 193.752 327.063 193.752C306.233 193.752 289.347 211.112 289.347 232.528C289.347 253.943 306.233 271.304 327.063 271.304Z" fill="#FFB6B6"/>
<path d="M378.041 205.443C377.749 205.122 377.397 204.865 377.005 204.687C376.614 204.509 376.192 204.414 375.764 204.407L376.331 202.789C376.517 202.279 376.567 201.727 376.476 201.191C376.386 200.655 376.159 200.153 375.818 199.737C375.476 199.321 375.034 199.005 374.535 198.823C374.037 198.64 373.5 198.597 372.98 198.698L370.914 199.108L371.109 197.689C371.184 197.161 371.123 196.622 370.934 196.125C370.744 195.627 370.432 195.19 370.028 194.854C369.624 194.519 369.142 194.297 368.63 194.212C368.117 194.126 367.592 194.178 367.105 194.365C366.663 194.544 366.186 194.619 365.712 194.584C365.237 194.55 364.776 194.406 364.363 194.165C363.947 193.93 363.587 193.606 363.306 193.213C363.025 192.821 362.831 192.371 362.738 191.893L362.018 188.325L361.942 188.134C358.438 182.129 351.7 177.761 343.456 176.159C336.117 174.723 328.592 175.454 321.338 176.142C318.46 176.42 315.21 176.734 312.501 178.439C310.199 179.901 308.252 182.825 308.65 185.775C301.497 183.522 293.828 188.021 290.028 193.695C285.525 200.448 284.788 208.906 284.67 215.52C284.348 231.167 287.489 243.968 293.981 253.576C294.455 254.272 294.573 255.725 295.513 256.212L295.318 255.89C296.368 256.43 297.434 257.3 297.036 258.231C295.894 260.912 303.486 266.838 308.836 268.796C318.595 272.373 331.571 272.068 340.696 270.78L341.018 268.561C344.31 268.1 346.63 267.221 347.281 265.846C348.433 264.837 349.415 263.931 350.269 263.096L350.278 263.087C350.295 263.07 350.329 263.044 350.346 263.026C354.468 258.962 355.424 256.648 355.856 253.123C356.271 249.668 355.534 246.161 354.781 243.002C370.643 245.526 348.534 225.632 363.313 221.786C363.483 221.732 363.655 221.689 363.829 221.655C364.261 221.551 364.693 221.447 365.108 221.325C367.107 220.767 369.021 219.926 370.796 218.827C374.926 216.242 376.289 212.814 378.422 208.95C378.73 208.4 378.859 207.763 378.791 207.132C378.722 206.501 378.46 205.91 378.041 205.443Z" fill="#2F2E41"/>
<path d="M450.786 429.013C450.778 430.102 450.761 431.627 450.693 433.513C450.685 433.775 450.676 434.043 450.668 434.316C450.558 437.784 450.448 440.691 450.27 443.922C450.262 444.146 450.253 444.364 450.236 444.588C449.999 449.095 449.627 454.343 448.984 462.653C447.792 478.005 445.711 464.764 443.622 470.149C443.52 470.416 443.41 470.734 443.309 471.107C442.992 472.462 442.459 473.785 441.719 475.048C440.611 475.533 439.469 476 438.344 476.467C435.138 477.781 431.882 479.044 428.6 480.246C426.756 480.918 424.904 481.578 423.043 482.213C422.747 482.313 422.459 482.412 422.172 482.506C412.643 485.749 402.822 488.507 392.779 490.76C390.817 491.196 388.863 491.619 386.884 492.011C384.82 492.435 382.756 492.833 380.667 493.207C365.125 496.015 349.221 497.599 333.224 497.931C331.067 497.981 328.894 498 326.711 498C325.629 498 324.563 497.994 323.48 497.988C323.15 497.988 322.821 497.981 322.491 497.975C321.535 497.956 320.545 497.944 319.547 497.925C300.244 497.482 281.099 495.216 262.581 491.183L261.794 491.015C260.576 490.741 259.366 490.474 258.157 490.187C252.574 488.886 247.074 487.43 241.655 485.817C237.519 484.591 233.43 483.275 229.39 481.871C229.353 481.863 229.319 481.851 229.289 481.833C228.443 481.547 227.589 481.248 226.743 480.943C226.633 480.899 226.514 480.856 226.396 480.812C223.241 479.679 220.12 478.492 217.033 477.251C214.436 472.863 210.782 472.022 208.515 468.163C207.855 467.016 207.379 465.817 207.094 464.589C207.094 464.577 207.086 464.565 207.086 464.546C207.323 466.862 206.079 460.437 207.077 464.521C207.069 464.446 207.06 464.365 207.052 464.272C207.027 464.048 206.993 463.774 206.942 463.432C204.041 442.583 204.227 418.741 202.967 399.094C202.882 397.824 202.795 396.608 202.704 395.446C202.679 395.06 202.645 394.681 202.611 394.307C202.671 394.195 202.738 394.077 202.814 393.965C202.831 393.933 202.85 393.901 202.874 393.872C202.898 393.833 202.927 393.795 202.958 393.759C202.975 393.741 203 393.716 203.017 393.697C203.03 393.676 203.044 393.655 203.06 393.635C203.136 393.548 203.22 393.454 203.313 393.367C203.356 393.33 203.389 393.299 203.432 393.268C203.461 393.236 203.495 393.207 203.533 393.181C203.559 393.151 203.591 393.123 203.626 393.1C203.66 393.075 203.694 393.044 203.736 393.012C203.754 392.993 203.777 392.976 203.804 392.963C203.871 392.906 203.944 392.854 204.024 392.807C204.326 392.603 204.648 392.415 204.988 392.247C205.106 392.191 205.233 392.135 205.352 392.072C206.204 391.697 207.102 391.38 208.033 391.126C208.355 391.039 208.676 390.958 209.023 390.871C209.15 390.846 209.268 390.815 209.395 390.784C209.581 390.74 209.767 390.697 209.962 390.666C210.926 390.454 211.966 390.273 213.091 390.105C213.226 390.087 213.37 390.068 213.514 390.043C213.717 390.012 213.929 389.987 214.14 389.962C214.428 389.925 214.724 389.887 215.02 389.85C217.532 389.557 220.382 389.34 223.529 389.196C223.825 389.184 224.121 389.172 224.417 389.159C224.764 389.147 225.11 389.134 225.466 389.122C225.762 389.109 226.066 389.103 226.371 389.097C226.667 389.084 226.971 389.078 227.284 389.072C228.138 389.053 229.018 389.035 229.915 389.022C232.469 388.985 235.159 388.997 237.984 389.041C223.529 389.196 236.614 450.744 237.984 450.788C238.077 450.788 242.179 389.14 242.264 389.14C243.456 389.172 244.657 389.209 245.892 389.259C246.755 389.29 247.626 389.321 248.498 389.358C249.318 389.396 250.147 389.433 250.984 389.477C251.636 389.501 252.287 389.539 252.947 389.57C253.505 389.601 254.063 389.632 254.621 389.657L255.383 389.694C255.797 389.719 256.211 389.738 256.634 389.769C257.565 389.825 258.495 389.881 259.443 389.937C260.381 389.999 261.337 390.062 262.293 390.124C263.249 390.186 264.213 390.255 265.177 390.323C265.279 390.329 265.372 390.336 265.465 390.342C266.345 390.41 267.224 390.473 268.112 390.541C268.315 390.554 268.527 390.566 268.73 390.585C269.577 390.647 270.44 390.721 271.294 390.787C271.557 390.808 271.817 390.828 272.08 390.85C272.75 390.903 273.41 390.95 274.084 391.008C274.972 391.083 275.877 391.151 276.757 391.238C277.442 391.294 278.127 391.35 278.812 391.413C279.886 391.506 280.977 391.606 282.068 391.711C282.483 391.749 282.897 391.786 283.312 391.83C286.424 392.116 296.004 455.823 299.201 456.153C304.048 456.657 302.537 393.816 307.494 394.407C312.459 394.998 317.452 395.623 322.474 396.281C323.742 396.449 325.011 396.617 326.288 396.791C326.864 396.872 336.836 462.572 337.411 462.653C338.392 462.784 329.976 397.302 330.957 397.439C331.938 397.575 336.43 462.51 337.411 462.653C338.578 462.822 336.244 398.192 337.411 398.36C345.1 399.48 352.746 400.676 360.206 401.927C361.433 402.132 362.659 402.344 363.877 402.549C366.313 402.966 368.726 403.39 371.117 403.819C371.777 403.931 372.428 404.05 373.08 404.168C374.704 404.467 376.328 404.766 377.926 405.071L378.205 405.127C379.381 405.338 380.531 405.556 381.682 405.78C384.397 406.303 387.067 406.832 389.692 407.368C391.434 407.723 393.157 408.081 394.86 408.445C397.406 408.986 399.901 409.534 402.328 410.088C402.929 410.225 403.529 410.362 404.122 410.493C405.898 410.897 407.649 411.308 409.349 411.719C410.702 412.043 412.022 412.373 413.324 412.703C414.627 413.033 415.904 413.362 417.156 413.692C417.959 413.904 418.754 414.128 419.549 414.34C420.691 414.651 421.816 414.962 422.916 415.274C423.254 415.367 423.584 415.467 423.914 415.56C424.125 415.628 424.328 415.684 424.531 415.747C424.929 415.865 425.335 415.977 425.724 416.095C426.122 416.207 426.511 416.326 426.9 416.45C427.28 416.562 427.669 416.681 428.042 416.799C428.422 416.911 428.794 417.029 429.167 417.154C429.48 417.247 429.784 417.347 430.08 417.446C430.681 417.639 431.281 417.832 431.865 418.031C432.152 418.131 432.44 418.224 432.727 418.324L433.387 418.548C433.48 418.585 433.573 418.617 433.666 418.648C433.878 418.722 434.098 418.803 434.309 418.878C434.8 419.046 435.282 419.227 435.756 419.395C436.39 419.631 437.007 419.868 437.599 420.098C438.2 420.335 438.784 420.571 439.342 420.802C439.435 420.839 439.519 420.876 439.613 420.914C439.739 420.963 439.866 421.019 439.993 421.069C440.425 421.25 440.839 421.437 441.253 421.617C442.065 421.984 442.835 422.345 443.554 422.706C443.715 422.787 443.867 422.868 444.028 422.943C444.561 423.223 445.068 423.497 445.542 423.777C445.542 423.783 445.542 423.783 445.55 423.783C445.711 423.871 445.863 423.964 446.015 424.051C446.142 424.138 446.278 424.213 446.405 424.3C446.844 424.58 447.25 424.848 447.622 425.122C447.747 425.206 447.866 425.296 447.978 425.39C448.027 425.42 448.072 425.453 448.113 425.489C448.282 425.614 448.435 425.738 448.578 425.863C448.601 425.88 448.62 425.899 448.638 425.919C448.84 426.093 449.027 426.267 449.204 426.442C449.289 426.529 449.382 426.616 449.458 426.703C449.559 426.809 449.661 426.921 449.746 427.027C449.822 427.114 449.889 427.207 449.957 427.294C450.137 427.519 450.289 427.754 450.414 427.998C450.509 428.163 450.585 428.334 450.642 428.508C450.706 428.674 450.754 428.842 450.786 429.013Z" fill="#2F2E41"/>
<path d="M548.778 162.163C589.512 162.163 622.534 128.1 622.534 86.0815C622.534 44.0629 589.512 10 548.778 10C508.043 10 475.022 44.0629 475.022 86.0815C475.022 128.1 508.043 162.163 548.778 162.163Z" fill="#4BD16F"/>
<path d="M511.3 69.1507C512.067 70.6575 512.653 72.2552 513.045 73.9084C514.045 78.2551 513.343 82.2 511.043 84.0502C510.813 84.2423 510.564 84.4103 510.302 84.5516C507.424 86.1041 503.453 84.4656 500.271 80.7994C499.178 79.5244 498.24 78.1165 497.478 76.6071C496.715 75.1171 496.134 73.5355 495.747 71.8983C494.626 67.0976 495.582 62.7678 498.468 61.2107C502.291 59.1485 508.034 62.7084 511.3 69.1507Z" fill="white"/>
<path d="M510.079 76.5807C511.247 78.8742 511.589 81.521 511.043 84.0501C510.813 84.2423 510.564 84.4102 510.302 84.5516C507.424 86.104 503.453 84.4655 500.271 80.7993C499.178 79.5243 498.24 78.1164 497.478 76.607C496.715 75.117 496.134 73.5354 495.747 71.8982C498.251 70.5661 501.164 70.3108 503.85 71.1883C506.535 72.0657 508.775 74.0045 510.079 76.5807Z" fill="#3F3D56"/>
<path d="M539.933 53.7049C543.068 59.8902 542.782 66.4886 539.376 68.8337C539.234 68.9332 539.086 69.024 538.934 69.1059C535.12 71.1635 529.376 67.6035 526.11 61.1613C525.349 59.6742 524.769 58.0956 524.384 56.4615C523.258 51.6519 524.214 47.3221 527.101 45.765C530.923 43.7028 536.666 47.2627 539.933 53.7049Z" fill="white"/>
<path d="M538.427 61.2879C539.608 63.6053 539.944 66.2824 539.376 68.8337C539.234 68.9332 539.086 69.024 538.934 69.1059C535.12 71.1635 529.376 67.6035 526.11 61.1613C525.349 59.6742 524.769 58.0956 524.384 56.4614C526.875 55.2322 529.731 55.0484 532.351 55.9487C534.97 56.849 537.149 58.7632 538.427 61.2879Z" fill="#3F3D56"/>
<path d="M507.683 112.856C516.368 129.985 533.215 138.58 545.313 132.054C557.411 125.527 560.179 106.351 551.495 89.2217C541.956 103.569 527.508 111.647 507.683 112.856Z" fill="white"/>
<path opacity="0.2" d="M614.225 50.937C607.206 37.094 596.228 25.8142 582.781 18.6287C569.334 11.4432 554.069 8.7003 539.058 10.7723C556.782 13.1781 573.055 22.1413 584.853 35.9954C596.65 49.8495 603.169 67.6516 603.197 86.0916C603.225 104.532 596.76 122.355 585.005 136.247C573.249 150.139 557.003 159.154 539.286 161.617C552.673 163.431 566.285 161.419 578.639 155.801C590.992 150.183 601.614 141.173 609.345 129.756C617.075 118.338 621.619 104.95 622.479 91.0509C623.34 77.1522 620.485 63.2767 614.225 50.937Z" fill="black"/>
</g>
<defs>
<clipPath id="clip0_10_18">
<rect width="666" height="498" fill="white"/>
</clipPath>
</defs>
</svg>
